<svg width="26" height="26" viewBox="0 0 26 26" fill="none" xmlns="http://www.w3.org/2000/svg">
<path d="M9.68442 22.9393C7.90908 22.4107 6.32881 21.4294 5.07751 20.1292C5.54432 19.5759 5.82563 18.8611 5.82563 18.0806C5.82563 16.3251 4.40249 14.9019 2.64696 14.9019C2.54077 14.9019 2.43579 14.9072 2.33227 14.9173C2.19125 14.2278 2.11719 13.514 2.11719 12.7828C2.11719 11.6753 2.28712 10.6074 2.60235 9.60383C2.6172 9.60404 2.63207 9.60415 2.64696 9.60415C4.40249 9.60415 5.82563 8.181 5.82563 6.42548C5.82563 5.9215 5.70834 5.44497 5.4996 5.02158C6.72493 3.88223 8.22049 3.02957 9.87954 2.57031C10.4052 3.60076 11.4766 4.30639 12.7127 4.30639C13.9489 4.30639 15.0202 3.60076 15.5459 2.57031C17.205 3.02957 18.7005 3.88223 19.9259 5.02158C19.7171 5.44497 19.5998 5.9215 19.5998 6.42548C19.5998 8.181 21.023 9.60415 22.7785 9.60415C22.7934 9.60415 22.8083 9.60404 22.8231 9.60383C23.1383 10.6074 23.3083 11.6753 23.3083 12.7828C23.3083 13.514 23.2342 14.2278 23.0932 14.9173C22.9897 14.9072 22.8847 14.9019 22.7785 14.9019C21.023 14.9019 19.5998 16.3251 19.5998 18.0806C19.5998 18.8611 19.8812 19.5759 20.3479 20.1292C19.0967 21.4294 17.5164 22.4107 15.741 22.9393C15.3313 21.6576 14.1304 20.7295 12.7127 20.7295C11.295 20.7295 10.0942 21.6576 9.68442 22.9393Z" stroke="white" stroke-width="1.86068" stroke-linejoin="round"/>
<path d="M12.7163 16.4911C14.7644 16.4911 16.4247 14.8308 16.4247 12.7827C16.4247 10.7345 14.7644 9.07422 12.7163 9.07422C10.6681 9.07422 9.00781 10.7345 9.00781 12.7827C9.00781 14.8308 10.6681 16.4911 12.7163 16.4911Z" stroke="white" stroke-width="1.86068" stroke-linejoin="round"/>
</svg>
