<svg width="26" height="26" viewBox="0 0 26 26" fill="none" xmlns="http://www.w3.org/2000/svg">
<path d="M12.7341 3.25391C9.227 3.25391 6.3768 6.10411 6.3768 9.61123V12.6733C6.3768 13.3197 6.10131 14.3051 5.77285 14.856L4.55436 16.8798C3.80208 18.13 4.32126 19.5181 5.69868 19.9843C10.2654 21.51 15.1923 21.51 19.759 19.9843C21.041 19.5604 21.6026 18.0453 20.9033 16.8798L19.6848 14.856C19.3669 14.3051 19.0915 13.3197 19.0915 12.6733V9.61123C19.0915 6.1147 16.2307 3.25391 12.7341 3.25391Z" stroke="white" stroke-width="1.86068" stroke-miterlimit="10" stroke-linecap="round"/>
<path d="M14.6977 3.5616C13.4164 3.19668 12.0587 3.19668 10.7773 3.5616C11.0846 2.77753 11.8475 2.22656 12.7375 2.22656C13.6275 2.22656 14.3904 2.77753 14.6977 3.5616Z" stroke="white" stroke-width="1.86068" stroke-miterlimit="10" stroke-linecap="round" stroke-linejoin="round"/>
<path d="M15.9159 20.3662C15.9159 22.1145 14.4855 23.5449 12.7373 23.5449C11.8684 23.5449 11.0632 23.1846 10.491 22.6125C9.8957 22.0163 9.56049 21.2087 9.55859 20.3662" stroke="white" stroke-width="1.86068" stroke-miterlimit="10"/>
</svg>
