<svg width="26" height="26" viewBox="0 0 26 26" fill="none" xmlns="http://www.w3.org/2000/svg">
<path d="M12.7163 10.9725C14.7644 10.9725 16.4247 9.31222 16.4247 7.2641C16.4247 5.21599 14.7644 3.55566 12.7163 3.55566C10.6681 3.55566 9.00781 5.21599 9.00781 7.2641C9.00781 9.31222 10.6681 10.9725 12.7163 10.9725Z" stroke="white" stroke-width="1.86068" stroke-linecap="round" stroke-linejoin="round"/>
<path d="M6.35691 4.2207C5.39616 4.89084 4.76758 6.00421 4.76758 7.26444C4.76758 8.61341 5.48786 9.79418 6.56479 10.4431" stroke="white" stroke-width="1.86068" stroke-linecap="round" stroke-linejoin="round"/>
<path d="M19.0742 4.2207C20.035 4.89084 20.6636 6.00421 20.6636 7.26444C20.6636 8.52462 20.035 9.63806 19.0742 10.3082" stroke="white" stroke-width="1.86068" stroke-linecap="round" stroke-linejoin="round"/>
<path d="M6.35547 21.5683V22.6278H19.0701V21.5683C19.0701 19.5935 19.0701 18.6061 18.7475 17.8272C18.3174 16.7888 17.4923 15.9637 16.4538 15.5336C15.6749 15.2109 14.6875 15.2109 12.7128 15.2109C10.7381 15.2109 9.75065 15.2109 8.97177 15.5336C7.9333 15.9637 7.10823 16.7888 6.6781 17.8272C6.35547 18.6061 6.35547 19.5935 6.35547 21.5683Z" stroke="white" stroke-width="1.86068" stroke-linecap="round" stroke-linejoin="round"/>
<path d="M23.3102 22.6278V21.992C23.3102 19.6184 23.3102 18.4316 22.8483 17.525C22.442 16.7275 21.7936 16.0792 20.9961 15.6729" stroke="white" stroke-width="1.86068" stroke-linecap="round" stroke-linejoin="round"/>
<path d="M2.11719 22.6278V21.992C2.11719 19.6184 2.11719 18.4316 2.57913 17.525C2.98546 16.7275 3.63382 16.0792 4.43129 15.6729" stroke="white" stroke-width="1.86068" stroke-linecap="round" stroke-linejoin="round"/>
</svg>
